<?xml version="1.0" encoding="UTF-8" standalone="no"?>
<svg
   width="192"
   height="192"
   viewBox="0 0 192 192"
   fill="none"
   version="1.1"
   id="svg207"
   sodipodi:docname="icon.svg"
   inkscape:version="1.1 (c68e22c387, 2021-05-23)"
   xmlns:inkscape="http://www.inkscape.org/namespaces/inkscape"
   xmlns:sodipodi="http://sodipodi.sourceforge.net/DTD/sodipodi-0.dtd"
   xmlns="http://www.w3.org/2000/svg"
   xmlns:svg="http://www.w3.org/2000/svg">
  <sodipodi:namedview
     id="namedview209"
     pagecolor="#ffffff"
     bordercolor="#666666"
     borderopacity="1.0"
     inkscape:pageshadow="2"
     inkscape:pageopacity="0.0"
     inkscape:pagecheckerboard="0"
     showgrid="false"
     inkscape:zoom="1.0761719"
     inkscape:cx="244.84936"
     inkscape:cy="95.709619"
     inkscape:window-width="2560"
     inkscape:window-height="1386"
     inkscape:window-x="2552"
     inkscape:window-y="-8"
     inkscape:window-maximized="1"
     inkscape:current-layer="svg207"
     fit-margin-top="0"
     fit-margin-left="0"
     fit-margin-right="0"
     fit-margin-bottom="0" />
  <g
     id="g306">
    <path
       d="M 124.251,3.54982 64,63.8008 h 32.32 c 21.76,0 31.68,20.4795 31.68,32.0003 v 90.8799 c 0,2.827 2.292,5.12 5.12,5.12 h 53.44 c 2.828,0 5.12,-2.285 5.124,-5.112 C 191.721,160.357 192,106.145 192,63.8008 192,26.6937 162.421,2.67 133.294,0.0411659 129.913,-0.263985 126.651,1.14936 124.251,3.54982 Z"
       fill="url(#paint0_linear)"
       id="path176"
       style="fill:url(#paint0_linear)" />
    <path
       fill-rule="evenodd"
       clip-rule="evenodd"
       d="M 0,5.12 C 0,2.2923 2.2923,0 5.12,0 h 6.4 c 2.8277,0 5.12,2.2923 5.12,5.12 v 53.76 c 0,2.8277 -2.2923,5.12 -5.12,5.12 H 5.11999 C 2.2923,64 0,61.7077 0,58.88 Z M 28.8,0 c -2.8277,0 -5.12,2.2923 -5.12,5.12 v 53.76 c 0,2.8277 2.2923,5.12 5.12,5.12 h 6.4 c 2.8277,0 5.12,-2.2923 5.12,-5.12 V 5.12 C 40.32,2.2923 38.0277,0 35.2,0 Z m 23.68,0 c -2.8277,0 -5.12,2.2923 -5.12,5.12 v 53.76 c 0,2.8277 2.2923,5.12 5.12,5.12 H 64 L 50.3592,77.6408 C 48.4389,79.5611 47.36,82.1656 47.36,84.8816 V 186.88 c 0,2.828 2.2923,5.12 5.12,5.12 h 6.4 c 2.8277,0 5.12,-2.292 5.12,-5.12 V 64 5.12 C 64,2.2923 61.7077,0 58.88,0 Z M 2.99922,125.001 C 1.07886,126.921 0,129.526 0,132.242 V 186.88 C 0,189.708 2.2923,192 5.11999,192 H 11.52 c 2.8277,0 5.12,-2.292 5.12,-5.12 v -72.43 c 0,-1.14 -1.3787,-1.712 -2.1851,-0.905 z M 23.68,108.562 c 0,-2.716 1.0789,-5.321 2.9992,-7.241 L 38.1349,89.8648 C 38.9413,89.0584 40.32,89.6296 40.32,90.7704 V 186.88 c 0,2.828 -2.2923,5.12 -5.12,5.12 h -6.4 c -2.8277,0 -5.12,-2.292 -5.12,-5.12 z"
       fill="#1b1b42"
       id="path178" />
  </g>
  <defs
     id="defs205">
    <linearGradient
       id="paint0_linear"
       x1="192"
       y1="-0.19919001"
       x2="19.6696"
       y2="56.095402"
       gradientUnits="userSpaceOnUse">
      <stop
         stop-color="#E7B28C"
         id="stop198" />
      <stop
         offset="0.49698"
         stop-color="#BD62B6"
         id="stop200" />
      <stop
         offset="1"
         stop-color="#6658C5"
         id="stop202" />
    </linearGradient>
  </defs>
</svg>
